<?xml version="1.0" encoding="utf-8"?>
<svg width="1024" height="1024" viewBox="0 0 1024 1024" xmlns="http://www.w3.org/2000/svg">
<rect width="1024" height="1024" fill="#A8D8A8" />
<path d="M 200 1100 C 400 800, 100 500, 512 400 C 800 300, 900 100, 1100 0" fill="none" stroke="#F5E6C8" stroke-width="180" stroke-linecap="round" />
<path d="M 200 1100 C 400 800, 100 500, 512 400 C 800 300, 900 100, 1100 0" fill="none" stroke="#FFF9E6" stroke-width="20" stroke-dasharray="60, 80" stroke-linecap="round" />
<circle cx="250" cy="250" r="90" fill="#5BAD6F" />
<circle cx="210" cy="220" r="50" fill="#84C794" />
<rect x="235" y="320" width="30" height="60" fill="#8B5E3C" rx="10" />
<circle cx="800" cy="750" r="110" fill="#5BAD6F" />
<circle cx="750" cy="710" r="60" fill="#84C794" />
<rect x="785" y="840" width="30" height="70" fill="#8B5E3C" rx="10" />
<path d="M 750 300 C 750 244.7, 705.3 200, 650 200 C 594.7 200, 550 244.7, 550 300 C 550 375, 650 480, 650 480 C 650 480, 750 375, 750 300 Z" fill="#FF8C7A" />
<circle cx="650" cy="300" r="35" fill="#FFF9E6" />
<g transform="translate(380, 550) rotate(-15)">
    <!-- Shadow -->
    <rect x="10" y="150" width="220" height="30" fill="#8B5E3C" opacity="0.2" rx="15" />
    <!-- Body Base -->
    <rect x="0" y="40" width="240" height="120" fill="#FFF9E6" rx="40" />
    <!-- Body Bottom Color (AC Gold) -->
    <path d="M 0 100 L 240 100 L 240 120 C 240 142 222 160 200 160 L 40 160 C 18 160 0 142 0 120 Z" fill="#F4C430" />
    <!-- Windows -->
    <rect x="30" y="55" width="50" height="40" fill="#87CEEB" rx="10" />
    <rect x="90" y="55" width="70" height="40" fill="#87CEEB" rx="10" />
    <!-- Wheels -->
    <circle cx="50" cy="160" r="25" fill="#2D4A3E" />
    <circle cx="50" cy="160" r="10" fill="#FFF9E6" />
    <circle cx="190" cy="160" r="25" fill="#2D4A3E" />
    <circle cx="190" cy="160" r="10" fill="#FFF9E6" />
    <!-- Headlight -->
    <circle cx="225" cy="110" r="12" fill="#FF8C7A" />
    <!-- Roof Rack / Luggage -->
    <rect x="80" y="20" width="80" height="20" fill="#8B5E3C" rx="5" />
    <rect x="90" y="5" width="60" height="15" fill="#5BAD6F" rx="5" />
</g>
</svg>