<?xml version="1.0" encoding="utf-8"?>
<svg width="1024" height="1024" viewBox="0 0 1024 1024" xmlns="http://www.w3.org/2000/svg">
<defs>
<linearGradient id="sky" x1="0" y1="0" x2="0" y2="1">
    <stop offset="0%" stop-color="#1A0000"/>
    <stop offset="40%" stop-color="#6E1500"/>
    <stop offset="70%" stop-color="#E25400"/>
    <stop offset="100%" stop-color="#FF9D00"/>
</linearGradient>
<linearGradient id="ground" x1="0" y1="0" x2="0" y2="1">
    <stop offset="0%" stop-color="#0E2108"/>
    <stop offset="100%" stop-color="#050A02"/>
</linearGradient>
</defs>
<rect width="1024" height="1024" fill="url(#sky)" />
<circle cx="512" cy="480" r="140" fill="#E2C431" />
<circle cx="512" cy="480" r="100" fill="#F5E78C" />
<circle cx="512" cy="480" r="60" fill="#FFFFFF" />
<rect x="0" y="480" width="1024" height="544" fill="url(#ground)" />
<polygon points="492,480 532,480 880,1024 144,1024" fill="#141416" />
<polygon points="492,480 144,1024 124,1024" fill="#0C0C0D" />
<polygon points="532,480 880,1024 900,1024" fill="#0C0C0D" />
<polygon points="510,500 514,500 513,530 511,530" fill="#C8972F" />
<polygon points="509,560 515,560 513,610 511,610" fill="#C8972F" />
<polygon points="507,650 517,650 515,720 509,720" fill="#C8972F" />
<polygon points="504,780 520,780 517,870 507,870" fill="#C8972F" />
<polygon points="500,940 524,940 520,1024 504,1024" fill="#C8972F" />
<polygon points="480.0,432.0 474.0,480.0 486.0,480.0" fill="#082110" />
<polygon points="480.0,432.0 480.0,480.0 486.0,480.0" fill="#041008" />
<polygon points="476.6942148760331,431.1735537190083 470.07438016528926,484.1322314049587 483.3140495867769,484.1322314049587" fill="#082110" />
<polygon points="476.6942148760331,431.1735537190083 476.6942148760331,484.1322314049587 483.3140495867769,484.1322314049587" fill="#041008" />
<polygon points="466.77685950413223,428.694214876033 458.297520661157,496.5289256198347 475.25619834710744,496.5289256198347" fill="#082110" />
<polygon points="466.77685950413223,428.694214876033 466.77685950413223,496.5289256198347 475.25619834710744,496.5289256198347" fill="#041008" />
<polygon points="450.24793388429754,424.56198347107437 438.6694214876033,517.1900826446281 461.8264462809918,517.1900826446281" fill="#082110" />
<polygon points="450.24793388429754,424.56198347107437 450.24793388429754,517.1900826446281 461.8264462809918,517.1900826446281" fill="#041008" />
<polygon points="427.10743801652893,418.7768595041323 411.1900826446281,546.1157024793389 443.02479338842977,546.1157024793389" fill="#082110" />
<polygon points="427.10743801652893,418.7768595041323 427.10743801652893,546.1157024793389 443.02479338842977,546.1157024793389" fill="#041008" />
<polygon points="397.35537190082647,411.3388429752066 375.85950413223145,583.3057851239669 418.8512396694215,583.3057851239669" fill="#082110" />
<polygon points="397.35537190082647,411.3388429752066 397.35537190082647,583.3057851239669 418.8512396694215,583.3057851239669" fill="#041008" />
<polygon points="360.9917355371901,402.2479338842975 332.67768595041326,628.7603305785124 389.3057851239669,628.7603305785124" fill="#082110" />
<polygon points="360.9917355371901,402.2479338842975 360.9917355371901,628.7603305785124 389.3057851239669,628.7603305785124" fill="#041008" />
<polygon points="318.0165289256198,391.50413223140504 281.64462809917353,682.4793388429753 354.3884297520661,682.4793388429753" fill="#082110" />
<polygon points="318.0165289256198,391.50413223140504 318.0165289256198,682.4793388429753 354.3884297520661,682.4793388429753" fill="#041008" />
<polygon points="268.4297520661157,379.1074380165289 222.76033057851242,744.4628099173553 314.099173553719,744.4628099173553" fill="#082110" />
<polygon points="268.4297520661157,379.1074380165289 268.4297520661157,744.4628099173553 314.099173553719,744.4628099173553" fill="#041008" />
<polygon points="212.23140495867767,365.0578512396694 156.0247933884297,814.7107438016529 268.43801652892563,814.7107438016529" fill="#082110" />
<polygon points="212.23140495867767,365.0578512396694 212.23140495867767,814.7107438016529 268.43801652892563,814.7107438016529" fill="#041008" />
<polygon points="149.42148760330582,349.3553719008264 81.43801652892566,893.2231404958677 217.40495867768598,893.2231404958677" fill="#082110" />
<polygon points="149.42148760330582,349.3553719008264 149.42148760330582,893.2231404958677 217.40495867768598,893.2231404958677" fill="#041008" />
<polygon points="80.0,332.0 -1.0,980.0 161.0,980.0" fill="#082110" />
<polygon points="80.0,332.0 80.0,980.0 161.0,980.0" fill="#041008" />
<polygon points="544.0,432.0 538.0,480.0 550.0,480.0" fill="#082110" />
<polygon points="544.0,432.0 544.0,480.0 550.0,480.0" fill="#041008" />
<polygon points="547.305785123967,431.1735537190083 540.6859504132232,484.1322314049587 553.9256198347108,484.1322314049587" fill="#082110" />
<polygon points="547.305785123967,431.1735537190083 547.305785123967,484.1322314049587 553.9256198347108,484.1322314049587" fill="#041008" />
<polygon points="557.2231404958678,428.694214876033 548.7438016528927,496.5289256198347 565.702479338843,496.5289256198347" fill="#082110" />
<polygon points="557.2231404958678,428.694214876033 557.2231404958678,496.5289256198347 565.702479338843,496.5289256198347" fill="#041008" />
<polygon points="573.7520661157025,424.56198347107437 562.1735537190083,517.1900826446281 585.3305785123968,517.1900826446281" fill="#082110" />
<polygon points="573.7520661157025,424.56198347107437 573.7520661157025,517.1900826446281 585.3305785123968,517.1900826446281" fill="#041008" />
<polygon points="596.8925619834711,418.7768595041323 580.9752066115702,546.1157024793389 612.8099173553719,546.1157024793389" fill="#082110" />
<polygon points="596.8925619834711,418.7768595041323 596.8925619834711,546.1157024793389 612.8099173553719,546.1157024793389" fill="#041008" />
<polygon points="626.6446280991736,411.3388429752066 605.1487603305785,583.3057851239669 648.1404958677687,583.3057851239669" fill="#082110" />
<polygon points="626.6446280991736,411.3388429752066 626.6446280991736,583.3057851239669 648.1404958677687,583.3057851239669" fill="#041008" />
<polygon points="663.0082644628098,402.2479338842975 634.694214876033,628.7603305785124 691.3223140495867,628.7603305785124" fill="#082110" />
<polygon points="663.0082644628098,402.2479338842975 663.0082644628098,628.7603305785124 691.3223140495867,628.7603305785124" fill="#041008" />
<polygon points="705.9834710743802,391.50413223140504 669.611570247934,682.4793388429753 742.3553719008264,682.4793388429753" fill="#082110" />
<polygon points="705.9834710743802,391.50413223140504 705.9834710743802,682.4793388429753 742.3553719008264,682.4793388429753" fill="#041008" />
<polygon points="755.5702479338843,379.1074380165289 709.9008264462809,744.4628099173553 801.2396694214876,744.4628099173553" fill="#082110" />
<polygon points="755.5702479338843,379.1074380165289 755.5702479338843,744.4628099173553 801.2396694214876,744.4628099173553" fill="#041008" />
<polygon points="811.7685950413223,365.0578512396694 755.5619834710744,814.7107438016529 867.9752066115702,814.7107438016529" fill="#082110" />
<polygon points="811.7685950413223,365.0578512396694 811.7685950413223,814.7107438016529 867.9752066115702,814.7107438016529" fill="#041008" />
<polygon points="874.5785123966941,349.3553719008264 806.5950413223139,893.2231404958677 942.5619834710743,893.2231404958677" fill="#082110" />
<polygon points="874.5785123966941,349.3553719008264 874.5785123966941,893.2231404958677 942.5619834710743,893.2231404958677" fill="#041008" />
<polygon points="944.0,332.0 863.0,980.0 1025.0,980.0" fill="#082110" />
<polygon points="944.0,332.0 944.0,980.0 1025.0,980.0" fill="#041008" />

<g transform="translate(432, 700) scale(1.6)">
    <!-- Rear Tire -->
    <path d="M 40 100 C 35 100, 30 110, 30 130 C 30 150, 35 160, 40 160 C 55 160, 65 150, 65 130 C 65 110, 55 100, 40 100 Z" fill="#000000" />
    <!-- Highlight on Tire -->
    <path d="M 38 105 C 36 105, 33 115, 33 130 C 33 145, 36 155, 38 155 C 40 155, 42 145, 42 130 C 42 115, 40 105, 38 105 Z" fill="#151515" />
    
    <!-- Tail Section & Exhaust -->
    <path d="M 25 70 L 65 70 L 70 85 L 60 100 L 25 100 Z" fill="#1A1A1A" />
    <path d="M 70 85 L 85 95 L 80 110 L 60 100 Z" fill="#111111" />
    
    <!-- Taillight -->
    <path d="M 35 75 L 55 75 L 52 80 L 38 80 Z" fill="#FF2A00" />
    <!-- Taillight Glow -->
    <path d="M 35 75 L 55 75 L 52 80 L 38 80 Z" fill="#FF5500" filter="blur(2px)" opacity="0.8" />
    
    <!-- Rider Body -->
    <path d="M 45 65 C 55 65, 70 50, 60 25 C 50 0, 30 0, 20 25 C 10 50, 30 65, 45 65 Z" fill="#0A0A0A" />
    
    <!-- Helmet -->
    <circle cx="45" cy="15" r="14" fill="#050505" />
    <!-- Helmet Visor Reflection -->
    <path d="M 35 10 C 40 5, 50 5, 55 10 C 52 14, 38 14, 35 10 Z" fill="#2A2A2A" />
    
    <!-- Arms -->
    <path d="M 22 25 L 5 60 L 12 65 L 28 35 Z" fill="#0A0A0A" />
    <path d="M 68 25 L 85 60 L 78 65 L 62 35 Z" fill="#0A0A0A" />
    
    <!-- Bike Frame / Fairing sides -->
    <path d="M 12 65 L 25 90 L 30 75 Z" fill="#1F1F1F" />
    <path d="M 78 65 L 65 90 L 60 75 Z" fill="#1F1F1F" />
</g>

</svg>